<svg xmlns="http://www.w3.org/2000/svg" viewBox="0 0 64 64">
  <defs>
    <linearGradient id="bg" x1="0%" y1="0%" x2="100%" y2="100%">
      <stop offset="0%" stop-color="#0f172a" />
      <stop offset="100%" stop-color="#1d4ed8" />
    </linearGradient>
  </defs>
  <rect width="64" height="64" rx="16" fill="url(#bg)" />
  <path
    d="M22 20c-3.314 0-6 2.686-6 6v12c0 3.314 2.686 6 6 6h3v-6h-2a4 4 0 0 1-4-4v-4a4 4 0 0 1 4-4h2v-6zm20 0h-3v6h2a4 4 0 0 1 4 4v4a4 4 0 0 1-4 4h-2v6h3c3.314 0 6-2.686 6-6V26c0-3.314-2.686-6-6-6z"
    fill="#93c5fd"
  />
  <circle cx="25" cy="25" r="3" fill="#f8fafc" />
  <circle cx="39" cy="25" r="3" fill="#f8fafc" />
  <circle cx="25" cy="39" r="3" fill="#f8fafc" />
  <circle cx="39" cy="39" r="3" fill="#f8fafc" />
  <circle cx="32" cy="32" r="4" fill="#facc15" />
  <path
    d="M25 25l7 7m7-7-7 7m-7 7 7-7m7 7-7-7"
    stroke="#e0f2fe"
    stroke-linecap="round"
    stroke-width="2.5"
  />
</svg>
